<svg xmlns="http://www.w3.org/2000/svg" width="37" height="37" fill="none" viewBox="0 0 45 45"><path fill="#B47F00" d="M38.4297 10.7918C38.5073 10.7582 38.5708 10.6995 38.6094 10.6256C38.648 10.5516 38.6594 10.4669 38.6417 10.3857C38.624 10.3044 38.5782 10.2317 38.5121 10.1796C38.446 10.1275 38.3636 10.0992 38.2787 10.0995H29.0212V1.04492C29.0211 0.962108 28.9921 0.881815 28.9388 0.81746C28.8855 0.753105 28.8113 0.708587 28.7284 0.691348C28.6456 0.674109 28.5593 0.685193 28.4838 0.722748C28.4084 0.760303 28.3484 0.822053 28.3139 0.897676L24.1261 10.0995H14.9604L10.7727 0.897676C10.7387 0.821453 10.6788 0.759083 10.6031 0.721156C10.5274 0.683229 10.4407 0.672082 10.3576 0.689607C10.2751 0.707449 10.2012 0.752189 10.1481 0.816486C10.095 0.880784 10.0659 0.960822 10.0654 1.04347V10.0995H0.836028C0.751125 10.0992 0.66869 10.1275 0.602577 10.1796C0.536464 10.2317 0.490702 10.3044 0.472984 10.3857C0.455265 10.4669 0.466669 10.5516 0.505279 10.6256C0.543889 10.6995 0.607352 10.7582 0.685001 10.7918L10.0654 14.8861V23.8519L0.685001 27.937C0.607352 27.9706 0.543889 28.0293 0.505279 28.1033C0.466669 28.1772 0.455265 28.2619 0.472984 28.3431C0.490702 28.4244 0.536464 28.4971 0.602577 28.5492C0.66869 28.6013 0.751125 28.6296 0.836028 28.6293H10.0654V37.6931C10.0657 37.7756 10.0947 37.8556 10.1478 37.9199C10.2008 37.9841 10.2746 38.0288 10.3571 38.0464C10.3829 38.052 10.4092 38.0547 10.4356 38.0546C10.5069 38.0544 10.5766 38.0341 10.6364 37.9961C10.6962 37.958 10.7435 37.904 10.7727 37.8403L14.9678 28.6288H24.1197L28.3149 37.8398C28.3439 37.9037 28.3913 37.9579 28.4512 37.9959C28.5111 38.034 28.581 38.0542 28.6525 38.0542C28.6785 38.0543 28.7045 38.0515 28.73 38.046C28.8126 38.0284 28.8866 37.9837 28.9397 37.9193C28.9929 37.855 29.0219 37.7748 29.0221 37.6921V28.6288H38.2787C38.3633 28.6285 38.4453 28.5997 38.5109 28.5474C38.5765 28.4951 38.6217 28.4223 38.639 28.3412C38.6564 28.2602 38.6448 28.1758 38.6061 28.1021C38.5675 28.0285 38.5041 27.97 38.4267 27.9365L29.0212 23.8461V14.8914L38.4297 10.7918ZM29.0212 10.8232H36.5404L29.0212 14.0997V10.8232ZM10.0649 27.9056H2.57678L10.0669 24.6436L10.0649 27.9056ZM10.0649 14.0939L2.57135 10.8232H10.0649V14.0939ZM10.8052 2.74906L14.152 10.102H10.8047L10.8052 2.74906ZM10.8052 10.8256H14.4807L17.2352 17.1164L10.8047 14.4164L10.8052 10.8256ZM10.8052 35.9947V28.6288H14.1579L10.8052 35.9947ZM14.4871 27.908H10.8052V24.3211L17.2352 21.6283L14.4871 27.908ZM28.2813 35.9923L24.9291 28.6288H28.2818L28.2813 35.9923ZM28.2813 27.9056H24.5994L21.8504 21.6297L28.2808 24.3182L28.2813 27.9056ZM28.2813 23.5246L21.2729 20.5836C21.2045 20.5533 21.1282 20.5442 21.0543 20.5574C20.9804 20.5706 20.9124 20.6055 20.8593 20.6574C20.8062 20.7094 20.7705 20.7759 20.757 20.8482C20.7435 20.9205 20.7529 20.9951 20.7838 21.062L23.79 27.9061H15.296L18.3027 21.062C18.3334 20.9952 18.3425 20.9208 18.3289 20.8488C18.3152 20.7768 18.2794 20.7105 18.2262 20.6589C18.1732 20.6076 18.1055 20.573 18.0321 20.5598C17.9587 20.5465 17.8829 20.5552 17.8146 20.5846L10.8062 23.5294V15.2091L17.8146 18.1616C17.8829 18.1914 17.9589 18.2002 18.0324 18.1869C18.1059 18.1735 18.1736 18.1387 18.2265 18.087C18.2794 18.0353 18.3149 17.9691 18.3286 17.8972C18.3422 17.8252 18.3332 17.751 18.3027 17.6842L15.2921 10.8232H23.7964L20.7838 17.6827C20.7532 17.7495 20.7441 17.8239 20.7576 17.8959C20.7712 17.9679 20.8068 18.0342 20.8597 18.086C20.9126 18.1378 20.9803 18.1727 21.0539 18.186C21.1276 18.1994 21.2036 18.1905 21.2719 18.1606L28.2803 15.2129L28.2813 23.5246ZM28.2813 14.4222L21.8509 17.1174L24.6059 10.8227H28.2813V14.4222ZM28.2813 10.0995H24.9346L28.2808 2.74664L28.2813 10.0995ZM36.5364 27.9056H29.0212V24.6373L36.5364 27.9056Z"/></svg>
